PathFileType	4	(X/Y/Z)	C:\Users\WrightLab\Desktop\Jo\P1_boxCal26.trc
DataRate	CameraRate	NumFrames	NumMarkers	Units	OrigDataRate	OrigDataStartFrame	OrigNumFrames
100.00	100.00	       42	19	mm	100.00	84	       664
Frame#	Time	Headset_Front			Headset_Back			Headset_Left			Headset_Right			Left_Shoulder			Right_Shoulder			Sternum			C7			Left Elbow			Right Elbow			Left Wrist			Right Wrist			Left ASIS			Right ASIS			S2			Left Knee			Right Knee			Left Ankle			Right Ankle			
		X1	Y1	Z1	X2	Y2	Z2	X3	Y3	Z3	X4	Y4	Z4	X5	Y5	Z5	X6	Y6	Z6	X7	Y7	Z7	X8	Y8	Z8	X9	Y9	Z9	X10	Y10	Z10	X11	Y11	Z11	X12	Y12	Z12	X13	Y13	Z13	X14	Y14	Z14	X15	Y15	Z15	X16	Y16	Z16	X17	Y17	Z17	X18	Y18	Z18	X19	Y19	Z19	

84	0.830																												-477.29242	1030.33655	1848.06018				-477.20734	840.60583	1673.38708													-604.66687	532.55109	1800.88623							
85	0.840																												-478.85910	1029.77832	1842.02966				-477.92908	840.04944	1668.00806													-611.92999	534.37665	1793.97681							
86	0.850																												-480.62427	1028.99146	1836.58252				-478.61713	840.01642	1661.76013													-618.12695	534.22302	1788.56641							
87	0.860																												-482.16931	1028.34143	1831.16895				-477.54074	838.70990	1655.96606													-624.88220	534.36053	1782.31177							
88	0.870																												-483.73346	1027.12915	1826.00574				-478.20984	837.97662	1651.54419													-630.93939	533.24731	1777.46643							
89	0.880																												-485.28448	1025.88660	1820.39075				-478.93170	836.50452	1646.76172													-636.57074	531.75946	1770.10681							
90	0.890																												-486.67139	1024.73035	1815.82922				-478.78772	835.36993	1641.51611													-641.62909	530.04181	1766.16748							
91	0.900																												-488.09763	1023.07855	1810.77747				-478.97617	833.56763	1636.56726													-646.20557	528.49292	1760.88049							
92	0.910																												-489.60416	1021.63165	1805.40149				-479.34308	831.75195	1631.99695													-651.11493	526.25336	1754.01318							
93	0.920													-940.86456	1328.80176	1901.16333													-491.04102	1019.94934	1800.07898				-478.04282	830.33228	1624.44495													-655.09564	523.63159	1748.25391							
94	0.930													-942.59485	1328.13342	1893.20215													-492.16150	1017.74091	1795.13184				-479.28479	828.38898	1619.68079													-658.51086	521.34137	1743.16333							
95	0.940													-944.34149	1327.24707	1886.63965													-493.34097	1015.80103	1789.52209				-478.83887	825.20825	1615.57288													-661.55292	518.74628	1737.29187							
96	0.950													-946.17914	1326.27625	1881.29895													-494.68460	1013.21161	1784.29944				-478.42667	822.68024	1609.30835													-665.83771	515.73395	1730.81323							
97	0.960													-947.40948	1325.26685	1873.88196													-496.09183	1010.74951	1779.19922				-478.44867	820.23096	1604.29700													-669.55560	513.91443	1723.37659							
98	0.970													-949.08337	1324.71350	1866.57739													-497.40201	1008.35541	1772.53894				-478.90594	818.16321	1598.13660													-672.87872	511.37302	1715.90503							
99	0.980													-950.07629	1323.48889	1858.97192													-498.72217	1005.80511	1766.59326				-478.47556	815.68683	1591.78674													-675.36188	509.66718	1709.32617							
100	0.990													-951.20618	1322.20703	1853.38354													-501.46579	1000.80292	1756.84473				-477.96994	812.66028	1585.92969													-679.00275	508.11835	1699.98364							
101	1.000													-952.43256	1320.83167	1845.88416													-500.69156	1000.72943	1754.68359				-477.53210	809.40173	1579.19592													-682.51825	506.43341	1691.51270							
102	1.010													-953.29535	1319.63647	1838.97693													-502.49533	997.52710	1747.53479				-478.09940	805.98413	1572.35254													-687.09320	504.25970	1680.96716							
103	1.020													-953.61407	1318.29736	1831.10181													-505.47238	990.99567	1734.67529				-477.07309	803.77301	1567.19348													-689.99121	502.90811	1673.81128							
104	1.030													-954.56567	1317.10815	1823.38818													-507.30099	988.74225	1730.23962				-476.77786	799.72736	1560.54785													-694.07703	501.63751	1662.93372							
105	1.040													-955.33087	1315.43127	1816.58533													-508.13641	985.75836	1722.71936				-477.16568	796.84875	1553.17407													-698.19495	499.72299	1653.66541							
106	1.050													-955.66681	1314.38074	1808.60864													-509.88028	982.38684	1715.30847				-476.51480	794.00842	1547.59253													-704.60645	497.84433	1648.00330							
107	1.060													-955.68677	1313.27490	1798.40369													-510.46817	979.71545	1709.78748				-476.60699	791.25354	1539.31604													-708.83582	496.22800	1635.68408							
108	1.070													-956.18225	1311.96643	1791.52808													-511.20920	976.39960	1703.31335				-476.82593	786.89484	1533.39795													-713.13055	493.76773	1625.90405							
109	1.080													-956.43970	1310.83972	1782.39478													-513.22675	973.66107	1694.53833				-476.55597	783.87958	1526.94568													-715.35272	491.47256	1612.87451							
110	1.090													-956.33380	1310.23901	1773.63794													-514.67798	969.92120	1685.03076				-477.01865	780.35474	1519.74963													-718.80951	488.90753	1604.72583							
111	1.100													-956.60254	1309.32275	1765.35986													-515.83832	967.40546	1678.35608				-476.18701	776.99963	1512.38660													-722.29309	486.81503	1595.42334							
112	1.110													-956.36108	1309.25513	1755.57556													-516.66199	963.66901	1669.24426				-475.59372	773.61725	1505.73267													-725.31415	484.76700	1585.89893							
113	1.120													-956.30627	1308.70361	1747.25317													-517.83502	960.60321	1661.38867				-475.69772	770.03510	1499.03320													-728.56683	483.98569	1577.51306							
114	1.130													-956.03394	1309.00879	1737.49316													-520.07233	958.56287	1652.41541				-475.05161	767.23273	1492.83044													-731.32312	484.03415	1568.32300							
115	1.140													-956.07159	1309.55127	1727.98254													-520.97034	955.65735	1642.80066				-474.66418	763.99408	1486.50208													-732.90314	484.29987	1559.90295							
116	1.150													-956.44366	1310.34314	1718.80957													-522.55182	954.56702	1633.70886				-474.46710	760.69995	1479.27441													-737.01355	485.37207	1550.44189							
117	1.160													-956.77332	1311.33521	1710.15808													-524.72253	953.65234	1624.98059	-1026.40015	883.66370	1576.10327	-474.23099	758.16125	1474.41602													-738.79657	487.01813	1539.98059							
118	1.170													-956.98029	1312.93384	1700.33655													-526.61737	954.07184	1617.45862	-1029.48828	884.05981	1568.24463	-474.47876	756.61926	1470.97473													-740.97327	488.51575	1530.24438							
119	1.180													-957.25775	1314.84204	1689.99817													-529.16052	953.91467	1607.24438	-1032.14990	885.11163	1559.00281	-474.67340	754.78253	1466.22729													-742.57129	489.03287	1522.87805							
120	1.190													-957.93225	1316.97974	1680.45776													-531.03796	955.23981	1598.31091	-1035.08630	886.17975	1551.50427	-475.46878	753.81482	1462.34802													-743.68195	491.93594	1513.95874							
121	1.200													-958.69196	1318.93774	1671.02551													-532.83020	956.25824	1589.49255	-1037.93909	887.67822	1544.09448	-475.16193	753.62878	1459.40588													-743.90314	493.48813	1506.19836							
122	1.210													-959.29138	1320.97668	1661.27014													-535.12531	958.50568	1580.73364	-1040.58264	889.62469	1535.20715	-476.78342	753.14233	1455.98315													-743.92664	493.80521	1500.38501							
123	1.220													-960.21429	1322.95068	1651.43201													-537.03418	959.48523	1572.07275	-1043.00635	891.77802	1526.31799	-477.30933	753.14209	1453.22351													-743.58252	493.89661	1493.65808							
124	1.230													-961.13605	1324.61719	1641.40430													-537.99756	961.12427	1564.09924	-1045.44592	893.92102	1517.45557	-477.68292	753.59583	1449.99536				-775.24341	873.22797	1477.68286							-743.22095	493.07883	1488.21582							
125	1.240													-961.85895	1326.08557	1632.37341													-538.39270	963.03259	1556.34241	-1048.19055	895.25262	1511.48083	-477.99155	753.75098	1446.22717				-774.50330	875.28766	1468.15820							-742.57605	492.72525	1482.44934							
